<svg width="12" height="12" viewBox="0 0 12 12" fill="none" xmlns="http://www.w3.org/2000/svg">
<path d="M7.20845 6.00012L10.8942 2.32298C11.0556 2.16158 11.1462 1.94267 11.1462 1.71441C11.1462 1.48615 11.0556 1.26724 10.8942 1.10584C10.7328 0.944435 10.5138 0.85376 10.2856 0.85376C10.0573 0.85376 9.83842 0.944435 9.67702 1.10584L5.99988 4.79155L2.32273 1.10584C2.16133 0.944435 1.94242 0.85376 1.71416 0.85376C1.4859 0.85376 1.267 0.944435 1.10559 1.10584C0.944189 1.26724 0.853514 1.48615 0.853514 1.71441C0.853514 1.94267 0.944189 2.16158 1.10559 2.32298L4.79131 6.00012L1.10559 9.67727C1.02525 9.75695 0.961487 9.85175 0.917971 9.9562C0.874455 10.0606 0.852051 10.1727 0.852051 10.2858C0.852051 10.399 0.874455 10.511 0.917971 10.6155C0.961487 10.7199 1.02525 10.8147 1.10559 10.8944C1.18527 10.9747 1.28008 11.0385 1.38453 11.082C1.48898 11.1255 1.60101 11.1479 1.71416 11.1479C1.82732 11.1479 1.93935 11.1255 2.0438 11.082C2.14825 11.0385 2.24305 10.9747 2.32273 10.8944L5.99988 7.20869L9.67702 10.8944C9.7567 10.9747 9.8515 11.0385 9.95595 11.082C10.0604 11.1255 10.1724 11.1479 10.2856 11.1479C10.3987 11.1479 10.5108 11.1255 10.6152 11.082C10.7197 11.0385 10.8145 10.9747 10.8942 10.8944C10.9745 10.8147 11.0383 10.7199 11.0818 10.6155C11.1253 10.511 11.1477 10.399 11.1477 10.2858C11.1477 10.1727 11.1253 10.0606 11.0818 9.9562C11.0383 9.85175 10.9745 9.75695 10.8942 9.67727L7.20845 6.00012Z" fill="#E6E8EC"/>
</svg>
