<svg width="329" height="60" viewBox="0 0 329 60" fill="none" xmlns="http://www.w3.org/2000/svg">
<path d="M40.92 27C38.79 26.4 35.25 25.71 31.23 24.99L19.77 12.27C19.1438 11.5783 18.382 11.0228 17.532 10.638L13.95 9C13.68 9 13.5 9 13.65 9.33C13.8 9.66 18 18 20.52 23.1C15 22.23 10.02 21.51 7.83 21.21C7.45869 21.1429 7.10516 21.0002 6.79137 20.7906C6.47758 20.5811 6.21025 20.3093 6.006 19.992L3.84 16.77C3.49696 16.2654 2.99718 15.8879 2.418 15.696L0 15L1.83 24.78C2.031 25.8 2.784 26.607 3.762 26.877C7.74 28.02 18.21 30.9 26.34 32.64C44.34 36.48 46.74 36.48 47.7 35.37C48.66 34.26 45.69 28.23 40.92 27ZM0 45H48V48H0V45Z" fill="white"/>
<path d="M71.08 44V16H88.32V20.96H76.2V26.92H85.56V31.88H76.2V44H71.08ZM96.2603 44.4C95.0736 44.4 94.1003 44.1667 93.3403 43.7C92.5936 43.22 92.0403 42.5867 91.6803 41.8C91.3203 41 91.1403 40.12 91.1403 39.16V14H96.1003V37.12C96.1003 38.1867 96.1603 38.9467 96.2803 39.4C96.4136 39.84 96.6536 40.1067 97.0003 40.2C97.347 40.28 97.847 40.32 98.5003 40.32L98.0603 44.4H96.2603ZM101.648 44V24H106.608V44H101.648ZM101.648 20.96V16H106.608V20.96H101.648ZM119.178 54.08C117.311 54.08 115.678 53.8467 114.278 53.38C112.891 52.9267 111.811 52.2733 111.038 51.42C110.278 50.5667 109.898 49.5467 109.898 48.36C109.898 47.36 110.171 46.4667 110.718 45.68C111.278 44.9067 112.084 44.2267 113.138 43.64C112.604 43.32 112.178 42.92 111.858 42.44C111.538 41.96 111.378 41.4133 111.378 40.8C111.378 40.16 111.558 39.6067 111.918 39.14C112.291 38.66 112.778 38.28 113.378 38C112.364 37.28 111.598 36.36 111.078 35.24C110.558 34.1067 110.298 32.88 110.298 31.56C110.298 30.12 110.611 28.8 111.238 27.6C111.864 26.3867 112.778 25.42 113.978 24.7C115.191 23.9667 116.671 23.6 118.418 23.6C119.324 23.6 120.158 23.7133 120.918 23.94C121.691 24.1667 122.378 24.48 122.978 24.88C123.378 24.6533 123.958 24.4533 124.718 24.28C125.478 24.0933 126.324 24 127.258 24C127.484 24 127.698 24 127.898 24C128.111 24 128.324 24 128.538 24L128.218 27.12C127.924 27.12 127.624 27.12 127.318 27.12C127.024 27.12 126.724 27.12 126.418 27.12C126.298 27.12 126.138 27.12 125.938 27.12C125.738 27.12 125.524 27.1333 125.298 27.16C125.698 27.7733 125.998 28.46 126.198 29.22C126.398 29.98 126.498 30.76 126.498 31.56C126.498 33 126.184 34.3267 125.558 35.54C124.944 36.74 124.038 37.7067 122.838 38.44C121.638 39.16 120.164 39.52 118.418 39.52C118.044 39.52 117.684 39.4933 117.338 39.44C116.991 39.3867 116.644 39.32 116.298 39.24C116.004 39.36 115.858 39.5733 115.858 39.88C115.858 40.24 116.078 40.5133 116.518 40.7C116.958 40.8867 117.644 41.0533 118.578 41.2L122.018 41.64C124.164 41.92 125.844 42.5267 127.058 43.46C128.284 44.3933 128.898 45.72 128.898 47.44C128.898 48.7733 128.511 49.9333 127.738 50.92C126.978 51.92 125.871 52.6933 124.418 53.24C122.964 53.8 121.218 54.08 119.178 54.08ZM119.378 50.32C121.058 50.32 122.331 50.1133 123.198 49.7C124.064 49.2867 124.498 48.6533 124.498 47.8C124.498 47.04 124.191 46.48 123.578 46.12C122.978 45.76 122.018 45.48 120.697 45.28L116.318 44.64C115.664 44.8933 115.118 45.24 114.678 45.68C114.238 46.1333 114.018 46.72 114.018 47.44C114.018 48.4133 114.491 49.1333 115.438 49.6C116.384 50.08 117.698 50.32 119.378 50.32ZM118.418 35.84C119.604 35.84 120.498 35.4533 121.098 34.68C121.711 33.8933 122.018 32.8533 122.018 31.56C122.018 30.2533 121.711 29.2133 121.098 28.44C120.498 27.6667 119.604 27.28 118.418 27.28C117.218 27.28 116.311 27.6667 115.698 28.44C115.084 29.2133 114.778 30.2533 114.778 31.56C114.778 32.8533 115.084 33.8933 115.698 34.68C116.311 35.4533 117.218 35.84 118.418 35.84ZM131.257 44V14H136.217V26.92L135.097 26.04C135.937 25.4533 136.85 24.9133 137.837 24.42C138.823 23.9267 140.003 23.68 141.377 23.68C143.137 23.68 144.57 24.0733 145.677 24.86C146.783 25.6333 147.597 26.7133 148.117 28.1C148.637 29.4733 148.897 31.0667 148.897 32.88V44H143.937V33.24C143.937 31.3733 143.637 29.9933 143.037 29.1C142.437 28.2067 141.457 27.76 140.097 27.76C138.937 27.76 137.983 28.0333 137.237 28.58C136.503 29.1133 135.857 29.84 135.297 30.76L136.217 28.08V44H131.257ZM159.613 44.4C158.36 44.4 157.34 44.1467 156.553 43.64C155.767 43.12 155.187 42.46 154.813 41.66C154.44 40.86 154.253 40.0267 154.253 39.16V28.08H151.413L151.853 24H154.253V19.6L159.213 19.08V24H163.613V28.08H159.213V37.12C159.213 38.1333 159.273 38.8667 159.393 39.32C159.513 39.76 159.787 40.04 160.213 40.16C160.64 40.2667 161.32 40.32 162.253 40.32H163.613L163.173 44.4H159.613ZM167.174 44V16H177.654C180.32 16 182.694 16.56 184.774 17.68C186.854 18.7867 188.487 20.3867 189.674 22.48C190.86 24.56 191.454 27.0667 191.454 30C191.454 32.9333 190.86 35.4467 189.674 37.54C188.487 39.62 186.854 41.22 184.774 42.34C182.694 43.4467 180.32 44 177.654 44H167.174ZM172.294 39.44H177.654C179.467 39.44 180.98 39.06 182.194 38.3C183.407 37.54 184.32 36.4533 184.934 35.04C185.547 33.6267 185.854 31.9467 185.854 30C185.854 28.0533 185.547 26.3733 184.934 24.96C184.32 23.5467 183.407 22.46 182.194 21.7C180.98 20.94 179.467 20.56 177.654 20.56H172.294V39.44ZM194.89 44V24H199.53L199.65 26.12C200.157 25.56 200.87 25 201.79 24.44C202.71 23.88 203.717 23.6 204.81 23.6C205.13 23.6 205.424 23.6267 205.69 23.68L205.33 28.56C205.037 28.48 204.744 28.4267 204.45 28.4C204.17 28.3733 203.89 28.36 203.61 28.36C202.77 28.36 202.004 28.5533 201.31 28.94C200.617 29.3267 200.13 29.8 199.85 30.36V44H194.89ZM217.382 44.4C214.969 44.4 212.955 43.92 211.342 42.96C209.742 41.9867 208.542 40.7067 207.742 39.12C206.942 37.52 206.542 35.7733 206.542 33.88C206.542 32.0533 206.915 30.3667 207.662 28.82C208.422 27.2733 209.529 26.0333 210.982 25.1C212.435 24.1533 214.209 23.68 216.302 23.68C218.222 23.68 219.822 24.0733 221.102 24.86C222.382 25.6467 223.342 26.7 223.982 28.02C224.622 29.3267 224.942 30.7733 224.942 32.36C224.942 32.8 224.915 33.2467 224.862 33.7C224.809 34.14 224.729 34.6 224.622 35.08H211.702C211.889 36.32 212.275 37.3267 212.862 38.1C213.462 38.86 214.189 39.42 215.042 39.78C215.909 40.14 216.835 40.32 217.822 40.32C218.982 40.32 220.062 40.1733 221.062 39.88C222.062 39.5733 222.982 39.1733 223.822 38.68L224.062 42.88C223.302 43.28 222.355 43.6333 221.222 43.94C220.089 44.2467 218.809 44.4 217.382 44.4ZM211.822 31.72H219.902C219.902 31.12 219.789 30.52 219.562 29.92C219.335 29.3067 218.955 28.7933 218.422 28.38C217.902 27.9667 217.195 27.76 216.302 27.76C215.022 27.76 214.015 28.1333 213.282 28.88C212.549 29.6267 212.062 30.5733 211.822 31.72ZM232.648 44.4C231.581 44.4 230.608 44.1667 229.728 43.7C228.848 43.22 228.148 42.5333 227.628 41.64C227.108 40.7467 226.848 39.6667 226.848 38.4C226.848 37.2667 227.108 36.3 227.628 35.5C228.161 34.6867 228.854 34.0133 229.708 33.48C230.574 32.9333 231.508 32.5067 232.508 32.2C233.521 31.88 234.514 31.6467 235.488 31.5C236.474 31.3533 237.341 31.2667 238.088 31.24C238.034 30.0933 237.741 29.26 237.208 28.74C236.674 28.22 235.768 27.96 234.488 27.96C233.594 27.96 232.721 28.0867 231.868 28.34C231.028 28.58 230.074 28.96 229.008 29.48L228.568 25.44C229.768 24.8533 230.968 24.4133 232.168 24.12C233.381 23.8267 234.608 23.68 235.848 23.68C237.341 23.68 238.628 23.9467 239.708 24.48C240.788 25.0133 241.621 25.8733 242.208 27.06C242.794 28.2333 243.088 29.7867 243.088 31.72V37.12C243.088 38.12 243.134 38.8467 243.228 39.3C243.321 39.74 243.494 40.02 243.748 40.14C244.001 40.26 244.368 40.32 244.848 40.32H245.488L245.048 44.4H243.248C242.501 44.4 241.834 44.3 241.248 44.1C240.674 43.9133 240.181 43.6467 239.768 43.3C239.354 42.9533 239.021 42.5467 238.768 42.08C238.114 42.8133 237.228 43.3867 236.108 43.8C235.001 44.2 233.848 44.4 232.648 44.4ZM234.728 40.6C235.168 40.6 235.714 40.4867 236.368 40.26C237.021 40.02 237.608 39.6533 238.128 39.16V34.6C237.194 34.64 236.261 34.7933 235.328 35.06C234.394 35.3267 233.614 35.72 232.988 36.24C232.361 36.76 232.048 37.4133 232.048 38.2C232.048 39.0133 232.261 39.62 232.688 40.02C233.114 40.4067 233.794 40.6 234.728 40.6ZM248.25 44V24H252.49L252.81 26.92L252.09 26.04C252.85 25.44 253.756 24.9 254.81 24.42C255.876 23.9267 257.116 23.68 258.53 23.68C259.596 23.68 260.536 23.84 261.35 24.16C262.176 24.4667 262.883 24.9133 263.47 25.5C264.056 26.0733 264.53 26.76 264.89 27.56L263.69 27.28C264.33 26.1333 265.263 25.2467 266.49 24.62C267.73 23.9933 269.13 23.68 270.69 23.68C272.53 23.68 274.03 24.06 275.19 24.82C276.35 25.58 277.203 26.6533 277.75 28.04C278.296 29.4133 278.57 31.0267 278.57 32.88V44H273.61V33.24C273.61 31.3733 273.316 29.9933 272.73 29.1C272.156 28.2067 271.196 27.76 269.85 27.76C269.183 27.76 268.596 27.88 268.09 28.12C267.596 28.3467 267.183 28.6867 266.85 29.14C266.53 29.58 266.29 30.12 266.13 30.76C265.97 31.3867 265.89 32.0933 265.89 32.88V44H260.93V33.24C260.93 32 260.796 30.9733 260.53 30.16C260.276 29.3467 259.863 28.7467 259.29 28.36C258.73 27.96 257.996 27.76 257.09 27.76C255.93 27.76 254.976 28.0333 254.23 28.58C253.496 29.1133 252.85 29.84 252.29 30.76L253.21 28.08V44H248.25ZM298.821 37.36H287.101V32.88H298.821V37.36ZM292.301 21H293.621L285.541 44H280.581L290.541 16H295.381L305.341 44H300.381L292.301 21ZM307.781 44V24H312.741V44H307.781ZM307.781 20.96V16H312.741V20.96H307.781ZM317.39 44V24H322.03L322.15 26.12C322.657 25.56 323.37 25 324.29 24.44C325.21 23.88 326.217 23.6 327.31 23.6C327.63 23.6 327.924 23.6267 328.19 23.68L327.83 28.56C327.537 28.48 327.244 28.4267 326.95 28.4C326.67 28.3733 326.39 28.36 326.11 28.36C325.27 28.36 324.504 28.5533 323.81 28.94C323.117 29.3267 322.63 29.8 322.35 30.36V44H317.39Z" fill="white"/>
</svg>
