<svg width="60" height="60" viewBox="0 0 60 60" fill="none" xmlns="http://www.w3.org/2000/svg">
<circle cx="30" cy="30" r="29" fill="#FCFCFD" stroke="#3854A4" stroke-width="2"/>
<path d="M41.8347 18.1898L41.8102 18.1653C40.5611 16.9774 38.0666 19.0871 38.0666 19.0871L33.5377 22.6526L28.7699 21.8076C29.4577 20.8106 29.6649 19.8208 29.2063 19.3622C28.6124 18.7683 27.1274 19.2903 25.8896 20.5281C25.6731 20.7446 25.4791 20.9687 25.3085 21.1942L21.6476 20.5454L19.2091 22.6231L29.1494 27.1843L22.7767 34.8845L18.8076 34.1404L17.8024 35.1441L24.856 42.1975L25.8596 41.1924L25.1155 37.2233L32.8157 30.8506L37.3769 40.7908L39.4547 38.3523L38.8059 34.6914C39.0314 34.5208 39.2554 34.3269 39.472 34.1103C40.7098 32.8725 41.2319 31.3876 40.638 30.7937C40.1793 30.3351 39.1894 30.5423 38.1924 31.2301L37.3474 26.4623L40.9129 21.9333C40.9129 21.9334 43.0227 19.4388 41.8347 18.1898Z" fill="#4669CD"/>
</svg>
