<svg width="61" height="60" viewBox="0 0 61 60" fill="none" xmlns="http://www.w3.org/2000/svg">
<circle cx="30.25" cy="30" r="30" fill="#E6E8EC"/>
<path d="M30 24.6668C30 18.776 27.3112 14 24 14C20.6876 14 18 18.776 18 24.6668C18 27.2304 19.616 29.4024 21.8776 30.2604L21.3332 43.3332C21.3332 44.806 22.5272 46 24 46C25.4728 46 26.6668 44.806 26.6668 43.3332L26.1224 30.2616C28.3856 29.4024 30 27.2304 30 24.6668Z" fill="#B1B5C4"/>
<path d="M42 23.6668L41.6668 14H40L39.6668 23.6668H38.3332L38 14H36L35.6668 23.6668H34.3332L34 14H32.3332L32 23.6668C32 25.7004 33.2188 27.4424 34.9636 28.224L34.3332 43.3332C34.3332 44.806 35.5272 46 37 46C38.4728 46 39.6668 44.806 39.6668 43.3332L39.0364 28.224C40.7812 27.4424 42 25.7004 42 23.6668Z" fill="#B1B5C4"/>
</svg>
