<svg width="24" height="24" viewBox="0 0 24 24" fill="none" xmlns="http://www.w3.org/2000/svg">
<path d="M12 22.5C12.1692 22.499 12.333 22.4409 12.465 22.335C12.75 22.08 20.25 16.035 20.25 9.75C20.25 7.56196 19.3808 5.46354 17.8336 3.91637C16.2865 2.36919 14.188 1.5 12 1.5C9.81196 1.5 7.71354 2.36919 6.16637 3.91637C4.61919 5.46354 3.75 7.56196 3.75 9.75C3.75 16.035 11.25 22.08 11.535 22.335C11.667 22.4409 11.8308 22.499 12 22.5ZM5.25 9.75C5.25 7.95979 5.96116 6.2429 7.22703 4.97703C8.4929 3.71116 10.2098 3 12 3C13.7902 3 15.5071 3.71116 16.773 4.97703C18.0388 6.2429 18.75 7.95979 18.75 9.75C18.75 14.475 13.5975 19.3575 12 20.7675C10.4025 19.3575 5.25 14.475 5.25 9.75Z" fill="#6F767E"/>
<path d="M15.75 9.75C15.75 9.00832 15.5301 8.2833 15.118 7.66661C14.706 7.04993 14.1203 6.56928 13.4351 6.28545C12.7498 6.00162 11.9958 5.92736 11.2684 6.07206C10.541 6.21675 9.8728 6.5739 9.34835 7.09835C8.8239 7.6228 8.46675 8.29098 8.32206 9.01841C8.17736 9.74584 8.25162 10.4998 8.53545 11.1851C8.81928 11.8703 9.29993 12.456 9.91661 12.868C10.5333 13.2801 11.2583 13.5 12 13.5C12.9946 13.5 13.9484 13.1049 14.6517 12.4017C15.3549 11.6984 15.75 10.7446 15.75 9.75ZM9.75 9.75C9.75 9.30499 9.88196 8.86998 10.1292 8.49997C10.3764 8.12996 10.7278 7.84157 11.139 7.67127C11.5501 7.50098 12.0025 7.45642 12.439 7.54323C12.8754 7.63005 13.2763 7.84434 13.591 8.15901C13.9057 8.47368 14.12 8.87459 14.2068 9.31105C14.2936 9.74751 14.249 10.1999 14.0787 10.611C13.9084 11.0222 13.62 11.3736 13.25 11.6208C12.88 11.868 12.445 12 12 12C11.4033 12 10.831 11.7629 10.409 11.341C9.98705 10.919 9.75 10.3467 9.75 9.75Z" fill="#6F767E"/>
</svg>
