<svg width="61" height="60" viewBox="0 0 61 60" fill="none" xmlns="http://www.w3.org/2000/svg">
<circle cx="30.75" cy="30" r="29" fill="#FCFCFD" stroke="#4669CD" stroke-width="2"/>
<g clip-path="url(#clip0_24_1790)">
<path d="M20.6651 37.4182C19.6954 37.0303 19.0166 36.5939 18.7742 36.4485L18.9196 35.7212H16.7378V32.0364H19.5984L19.7439 31.5515H16.2529V35.7212H15.8651C15.4772 35.7212 15.1863 36.0121 15.1863 36.3515V43.6727C15.1863 44.0121 15.4772 44.303 15.8651 44.303H16.059V44.7394C15.962 44.7879 15.8651 44.9333 15.8651 45.0788C15.8651 45.2727 16.059 45.4667 16.3014 45.4667C16.4954 45.5152 16.6893 45.3212 16.6893 45.0788C16.6893 44.9333 16.5923 44.7879 16.4954 44.7394V44.303H19.6954V44.7394C19.5984 44.7879 19.5014 44.9333 19.5014 45.0788C19.5014 45.2727 19.6954 45.4667 19.9378 45.4667C20.1802 45.4667 20.3742 45.2727 20.3742 45.0788C20.3742 44.9333 20.3257 44.7879 20.1802 44.7394V44.303C20.2772 44.303 20.5196 44.3515 20.7136 44.2061C20.6651 44.0606 20.6651 45.5152 20.6651 37.4182ZM39.9136 38.3394C39.9136 38.3879 39.8651 39.8424 39.8651 39.7455L39.962 44.1091C39.962 44.8848 40.6408 45.5152 41.4166 45.5152C42.1923 45.5152 42.8711 44.8364 42.8226 44.0121L42.7257 39.697L42.8226 37.6606C41.9014 38.0485 40.9317 38.2424 39.9136 38.3394ZM35.5499 37.7091L35.6469 39.7455L35.5984 44.0606C35.5984 44.8848 36.2287 45.5151 37.0045 45.5636H37.0529C37.8287 45.5636 38.5075 44.9333 38.5075 44.1576C38.5075 44.1091 38.6045 39.4061 38.6045 39.697L38.5075 38.3394C37.5378 38.2424 36.5196 38.0485 35.5499 37.7091ZM25.5136 38.2424C25.3681 41.103 25.5136 41.4424 25.5136 44.1091C25.5136 44.8848 26.1923 45.5152 26.9681 45.5152H27.0166C27.8408 45.5152 28.4711 44.8364 28.4226 44.0121L28.3257 39.7455L28.4226 37.6606C27.5014 37.9515 26.4832 38.1939 25.5136 38.2424ZM24.1075 38.2424C23.2348 38.1939 22.362 38 21.4893 37.7576C21.3923 37.7091 21.2469 37.6606 21.1499 37.6606C21.1499 37.7091 21.1499 44.1091 21.1499 44.0606C21.1499 44.8848 21.7802 45.5151 22.556 45.5636H22.6045C23.3802 45.5636 24.059 44.9333 24.059 44.1576C24.2045 37.2727 24.1075 40.5212 24.1075 38.2424ZM32.6893 31.8909V32.0848H32.7863V36.9818H31.7196V36.2545H31.3317V36.9818H30.2651C29.9742 36.9818 29.7802 37.2242 29.7802 37.4667V44.5455C29.7802 44.8364 30.0226 45.0303 30.2651 45.0303H30.7014V45.1758C30.7014 45.3697 30.8469 45.5152 30.9923 45.5152C31.1863 45.5152 31.3317 45.3697 31.3317 45.1758V45.0303H31.7196V45.1758C31.7196 45.3697 31.8651 45.5152 32.059 45.5152C32.2529 45.5152 32.3984 45.3697 32.3984 45.1758V45.0303H32.8348C33.1257 45.0303 33.3196 44.7879 33.3196 44.5455V37.4667C33.3196 37.3697 33.2711 37.2727 33.2226 37.1758V32.0848H33.3196V31.9394C33.1742 31.9879 32.9317 31.9394 32.6893 31.8909Z" fill="#4669CD"/>
<path d="M29.441 32.1333C29.1986 32.1333 28.9562 32.0849 28.7137 31.9394C28.035 31.503 27.7925 30.6303 28.2289 29.9515C28.4713 29.5636 28.6653 29.1758 28.8107 28.8364L28.4713 27.0909V23.9394C30.1683 25.6849 30.2168 27.6243 28.6653 30.194C28.3744 30.6303 28.5198 31.2606 29.0047 31.503C29.4895 31.7939 30.0713 31.6485 30.3137 31.1636C32.641 27.2849 32.0592 24.0364 28.5198 21.4182C28.4228 21.3697 28.3259 21.3212 28.2289 21.2727C25.9016 20.0606 23.5744 20.0606 21.2956 21.2727C21.0531 21.3697 20.8107 21.5636 20.7137 21.8546L17.5622 30.4849C17.4653 30.6788 17.4653 30.9212 17.5622 31.1152H19.4047L21.1501 26.4121V27.0909L19.3077 36.2061C22.7986 38.2909 26.7744 38.2909 30.2653 36.2061L29.441 32.1333ZM46.2653 30.1455L43.3077 22C43.2107 21.7091 42.9683 21.4667 42.6774 21.4182C40.3501 20.2061 38.0713 20.2061 35.744 21.4182C35.5016 21.5152 35.2592 21.7091 35.1622 22L32.2047 30.1455C32.0107 30.6303 32.3016 31.2121 32.7865 31.4061C33.2713 31.6 33.8531 31.3091 34.0471 30.8243L35.5986 26.6061V27.1879L33.7562 36.303C37.2471 38.3879 41.2228 38.3879 44.7137 36.303L42.8713 27.1879V26.5576L44.4228 30.8243C44.6168 31.3091 45.1501 31.6 45.6834 31.4061C46.1683 31.2121 46.4592 30.6788 46.2653 30.1455Z" fill="#4669CD"/>
<path d="M24.7862 20.1091C26.3393 20.1091 27.5984 18.8501 27.5984 17.297C27.5984 15.7439 26.3393 14.4849 24.7862 14.4849C23.2332 14.4849 21.9741 15.7439 21.9741 17.297C21.9741 18.8501 23.2332 20.1091 24.7862 20.1091Z" fill="#4669CD"/>
<path d="M39.2347 20.0606C40.7862 20.0606 42.0468 18.8 42.0468 17.2485C42.0468 15.697 40.7862 14.4364 39.2347 14.4364C37.6832 14.4364 36.4226 15.697 36.4226 17.2485C36.4226 18.8485 37.6832 20.0606 39.2347 20.0606Z" fill="#4669CD"/>
</g>
<defs>
<clipPath id="clip0_24_1790">
<rect width="32" height="32" fill="white" transform="translate(14.75 14)"/>
</clipPath>
</defs>
</svg>
