<svg width="61" height="60" viewBox="0 0 61 60" fill="none" xmlns="http://www.w3.org/2000/svg">
<circle cx="30.75" cy="30" r="30" fill="#E6E8EC"/>
<g clip-path="url(#clip0_1158_585)">
<path d="M20.6652 37.4182C19.6955 37.0303 19.0167 36.5939 18.7743 36.4485L18.9197 35.7212H16.7379V32.0364H19.5985L19.744 31.5515H16.2531V35.7212H15.8652C15.4773 35.7212 15.1864 36.0121 15.1864 36.3515V43.6727C15.1864 44.0121 15.4773 44.303 15.8652 44.303H16.0591V44.7394C15.9622 44.7879 15.8652 44.9333 15.8652 45.0788C15.8652 45.2727 16.0591 45.4667 16.3016 45.4667C16.4955 45.5152 16.6894 45.3212 16.6894 45.0788C16.6894 44.9333 16.5925 44.7879 16.4955 44.7394V44.303H19.6955V44.7394C19.5985 44.7879 19.5016 44.9333 19.5016 45.0788C19.5016 45.2727 19.6955 45.4667 19.9379 45.4667C20.1803 45.4667 20.3743 45.2727 20.3743 45.0788C20.3743 44.9333 20.3258 44.7879 20.1803 44.7394V44.303C20.2773 44.303 20.5197 44.3515 20.7137 44.2061C20.6652 44.0606 20.6652 45.5152 20.6652 37.4182ZM39.9137 38.3394C39.9137 38.3879 39.8652 39.8424 39.8652 39.7455L39.9622 44.1091C39.9622 44.8848 40.6409 45.5152 41.4167 45.5152C42.1925 45.5152 42.8713 44.8364 42.8228 44.0121L42.7258 39.697L42.8228 37.6606C41.9016 38.0485 40.9319 38.2424 39.9137 38.3394ZM35.55 37.7091L35.647 39.7455L35.5985 44.0606C35.5985 44.8848 36.2288 45.5151 37.0046 45.5636H37.0531C37.8288 45.5636 38.5076 44.9333 38.5076 44.1576C38.5076 44.1091 38.6046 39.4061 38.6046 39.697L38.5076 38.3394C37.5379 38.2424 36.5197 38.0485 35.55 37.7091ZM25.5137 38.2424C25.3682 41.103 25.5137 41.4424 25.5137 44.1091C25.5137 44.8848 26.1925 45.5152 26.9682 45.5152H27.0167C27.8409 45.5152 28.4713 44.8364 28.4228 44.0121L28.3258 39.7455L28.4228 37.6606C27.5016 37.9515 26.4834 38.1939 25.5137 38.2424ZM24.1076 38.2424C23.2349 38.1939 22.3622 38 21.4894 37.7576C21.3925 37.7091 21.247 37.6606 21.15 37.6606C21.15 37.7091 21.15 44.1091 21.15 44.0606C21.15 44.8848 21.7803 45.5151 22.5561 45.5636H22.6046C23.3803 45.5636 24.0591 44.9333 24.0591 44.1576C24.2046 37.2727 24.1076 40.5212 24.1076 38.2424ZM32.6894 31.8909V32.0848H32.7864V36.9818H31.7197V36.2545H31.3319V36.9818H30.2652C29.9743 36.9818 29.7803 37.2242 29.7803 37.4667V44.5455C29.7803 44.8364 30.0228 45.0303 30.2652 45.0303H30.7016V45.1758C30.7016 45.3697 30.847 45.5152 30.9925 45.5152C31.1864 45.5152 31.3319 45.3697 31.3319 45.1758V45.0303H31.7197V45.1758C31.7197 45.3697 31.8652 45.5152 32.0591 45.5152C32.2531 45.5152 32.3985 45.3697 32.3985 45.1758V45.0303H32.8349C33.1258 45.0303 33.3197 44.7879 33.3197 44.5455V37.4667C33.3197 37.3697 33.2712 37.2727 33.2228 37.1758V32.0848H33.3197V31.9394C33.1743 31.9879 32.9319 31.9394 32.6894 31.8909Z" fill="#B1B5C4"/>
<path d="M29.4409 32.1333C29.1985 32.1333 28.956 32.0849 28.7136 31.9394C28.0348 31.503 27.7924 30.6303 28.2288 29.9515C28.4712 29.5636 28.6651 29.1758 28.8106 28.8364L28.4712 27.0909V23.9394C30.1682 25.6849 30.2167 27.6243 28.6651 30.194C28.3742 30.6303 28.5197 31.2606 29.0045 31.503C29.4894 31.7939 30.0712 31.6485 30.3136 31.1636C32.6409 27.2849 32.0591 24.0364 28.5197 21.4182C28.4227 21.3697 28.3257 21.3212 28.2288 21.2727C25.9015 20.0606 23.5742 20.0606 21.2954 21.2727C21.053 21.3697 20.8106 21.5636 20.7136 21.8546L17.5621 30.4849C17.4651 30.6788 17.4651 30.9212 17.5621 31.1152H19.4045L21.15 26.4121V27.0909L19.3076 36.2061C22.7985 38.2909 26.7742 38.2909 30.2651 36.2061L29.4409 32.1333ZM46.2651 30.1455L43.3076 22C43.2106 21.7091 42.9682 21.4667 42.6773 21.4182C40.35 20.2061 38.0712 20.2061 35.7439 21.4182C35.5015 21.5152 35.2591 21.7091 35.1621 22L32.2045 30.1455C32.0106 30.6303 32.3015 31.2121 32.7864 31.4061C33.2712 31.6 33.853 31.3091 34.047 30.8243L35.5985 26.6061V27.1879L33.756 36.303C37.247 38.3879 41.2227 38.3879 44.7136 36.303L42.8712 27.1879V26.5576L44.4227 30.8243C44.6167 31.3091 45.15 31.6 45.6833 31.4061C46.1682 31.2121 46.4591 30.6788 46.2651 30.1455Z" fill="#B1B5C4"/>
<path d="M24.7864 20.1091C26.3395 20.1091 27.5985 18.8501 27.5985 17.297C27.5985 15.7439 26.3395 14.4849 24.7864 14.4849C23.2333 14.4849 21.9742 15.7439 21.9742 17.297C21.9742 18.8501 23.2333 20.1091 24.7864 20.1091Z" fill="#B1B5C4"/>
<path d="M39.2349 20.0606C40.7864 20.0606 42.047 18.8 42.047 17.2485C42.047 15.697 40.7864 14.4364 39.2349 14.4364C37.6833 14.4364 36.4227 15.697 36.4227 17.2485C36.4227 18.8485 37.6833 20.0606 39.2349 20.0606Z" fill="#B1B5C4"/>
</g>
<defs>
<clipPath id="clip0_1158_585">
<rect width="32" height="32" fill="white" transform="translate(14.75 14)"/>
</clipPath>
</defs>
</svg>
