<svg width="60" height="60" viewBox="0 0 60 60" fill="none" xmlns="http://www.w3.org/2000/svg">
<circle cx="30" cy="30" r="30" fill="#E6E8EC"/>
<path d="M41 21H19C18.4696 21 17.9609 21.2107 17.5858 21.5858C17.2107 21.9609 17 22.4696 17 23V37C17 37.5304 17.2107 38.0391 17.5858 38.4142C17.9609 38.7893 18.4696 39 19 39H41C41.5304 39 42.0391 38.7893 42.4142 38.4142C42.7893 38.0391 43 37.5304 43 37V23C43 22.4696 42.7893 21.9609 42.4142 21.5858C42.0391 21.2107 41.5304 21 41 21ZM25 36H21C20.7348 36 20.4804 35.8946 20.2929 35.7071C20.1054 35.5196 20 35.2652 20 35C20 34.7348 20.1054 34.4804 20.2929 34.2929C20.4804 34.1054 20.7348 34 21 34H25C25.2652 34 25.5196 34.1054 25.7071 34.2929C25.8946 34.4804 26 34.7348 26 35C26 35.2652 25.8946 35.5196 25.7071 35.7071C25.5196 35.8946 25.2652 36 25 36ZM26 29C26 29.2652 25.8946 29.5196 25.7071 29.7071C25.5196 29.8946 25.2652 30 25 30H21C20.7348 30 20.4804 29.8946 20.2929 29.7071C20.1054 29.5196 20 29.2652 20 29V25C20 24.7348 20.1054 24.4804 20.2929 24.2929C20.4804 24.1054 20.7348 24 21 24H25C25.2652 24 25.5196 24.1054 25.7071 24.2929C25.8946 24.4804 26 24.7348 26 25V29ZM39 36H31C30.7348 36 30.4804 35.8946 30.2929 35.7071C30.1054 35.5196 30 35.2652 30 35C30 34.7348 30.1054 34.4804 30.2929 34.2929C30.4804 34.1054 30.7348 34 31 34H39C39.2652 34 39.5196 34.1054 39.7071 34.2929C39.8946 34.4804 40 34.7348 40 35C40 35.2652 39.8946 35.5196 39.7071 35.7071C39.5196 35.8946 39.2652 36 39 36Z" fill="#B1B5C4"/>
</svg>
