<svg width="61" height="60" viewBox="0 0 61 60" fill="none" xmlns="http://www.w3.org/2000/svg">
<circle cx="30.5" cy="30" r="30" fill="#E6E8EC"/>
<g clip-path="url(#clip0_19_136)">
<path d="M21.6333 21.52C20.4333 20.6667 20.14 19.0133 20.98 17.8C21.82 16.6 23.4867 16.3067 24.7 17.1467C25.9 18 26.1933 19.6533 25.3533 20.8667C24.5 22.0667 22.8467 22.36 21.6333 21.52ZM35.8333 40.6667C35.8333 39.9333 35.2333 39.3333 34.5 39.3333H26.4067C24.4333 39.3333 22.7533 37.8933 22.46 35.9467L20.0467 24.3733C19.9863 24.0788 19.8258 23.8142 19.5925 23.6247C19.3591 23.4351 19.0673 23.3321 18.7667 23.3333C17.94 23.3333 17.3267 24.0933 17.4867 24.9067L19.82 36.3467C20.0649 37.9213 20.8647 39.3566 22.075 40.3933C23.2853 41.43 24.8264 41.9998 26.42 42H34.5C35.2333 42 35.8333 41.4 35.8333 40.6667ZM35.22 34H29.6333L28.26 28.5333C29.9667 29.4933 31.7667 30.24 33.7267 30.2667C34.5 30.28 35.1267 29.6133 35.1267 28.84C35.1267 28.0533 34.4733 27.4533 33.6867 27.4267C31.94 27.3733 30.18 26.68 28.8733 25.6533L26.6867 23.96C26.38 23.72 26.0333 23.56 25.6733 23.4533C25.2451 23.327 24.7937 23.2996 24.3533 23.3733H24.3267C23.5415 23.5127 22.8432 23.9566 22.3837 24.6084C21.9242 25.2601 21.7408 26.067 21.8733 26.8533L23.6733 34.7467C23.8492 35.6613 24.3379 36.4862 25.0556 37.0798C25.7733 37.6735 26.6753 37.9988 27.6067 38H36.74L40.86 41.2267C41.42 41.6667 42.22 41.6133 42.7133 41.12C43.3133 40.52 43.2467 39.5467 42.58 39.0267L36.86 34.56C36.3904 34.1968 35.8136 33.9999 35.22 34Z" fill="#B1B5C4"/>
<g clip-path="url(#clip1_19_136)">
<path d="M21.6333 21.52C20.4333 20.6667 20.14 19.0133 20.98 17.8C21.82 16.6 23.4867 16.3067 24.7 17.1467C25.9 18 26.1933 19.6533 25.3533 20.8667C24.5 22.0667 22.8467 22.36 21.6333 21.52ZM35.8333 40.6667C35.8333 39.9333 35.2333 39.3333 34.5 39.3333H26.4067C24.4333 39.3333 22.7533 37.8933 22.46 35.9467L20.0467 24.3733C19.9863 24.0788 19.8258 23.8142 19.5925 23.6247C19.3591 23.4351 19.0673 23.3321 18.7667 23.3333C17.94 23.3333 17.3267 24.0933 17.4867 24.9067L19.82 36.3467C20.0649 37.9213 20.8647 39.3566 22.075 40.3933C23.2853 41.43 24.8264 41.9998 26.42 42H34.5C35.2333 42 35.8333 41.4 35.8333 40.6667ZM35.22 34H29.6333L28.26 28.5333C29.9667 29.4933 31.7667 30.24 33.7267 30.2667C34.5 30.28 35.1267 29.6133 35.1267 28.84C35.1267 28.0533 34.4733 27.4533 33.6867 27.4267C31.94 27.3733 30.18 26.68 28.8733 25.6533L26.6867 23.96C26.38 23.72 26.0333 23.56 25.6733 23.4533C25.2451 23.327 24.7937 23.2996 24.3533 23.3733H24.3267C23.5415 23.5127 22.8432 23.9566 22.3837 24.6084C21.9242 25.2601 21.7408 26.067 21.8733 26.8533L23.6733 34.7467C23.8492 35.6613 24.3379 36.4862 25.0556 37.0798C25.7733 37.6735 26.6753 37.9988 27.6067 38H36.74L40.86 41.2267C41.42 41.6667 42.22 41.6133 42.7133 41.12C43.3133 40.52 43.2467 39.5467 42.58 39.0267L36.86 34.56C36.3904 34.1968 35.8136 33.9999 35.22 34Z" fill="#B1B5C4"/>
</g>
</g>
<defs>
<clipPath id="clip0_19_136">
<rect width="32" height="32" fill="white" transform="translate(14.5 14)"/>
</clipPath>
<clipPath id="clip1_19_136">
<rect width="32" height="32" fill="white" transform="translate(14.5 14)"/>
</clipPath>
</defs>
</svg>
