<svg width="61" height="60" viewBox="0 0 61 60" fill="none" xmlns="http://www.w3.org/2000/svg">
<circle cx="30.5" cy="30" r="29" fill="#FCFCFD" stroke="#4669CD" stroke-width="2"/>
<g clip-path="url(#clip0_34_330)">
<path d="M21.6331 21.52C20.4331 20.6667 20.1398 19.0133 20.9798 17.8C21.8198 16.6 23.4864 16.3067 24.6998 17.1467C25.8998 18 26.1931 19.6533 25.3531 20.8667C24.4998 22.0667 22.8464 22.36 21.6331 21.52ZM35.8331 40.6667C35.8331 39.9333 35.2331 39.3333 34.4998 39.3333H26.4064C24.4331 39.3333 22.7531 37.8933 22.4598 35.9467L20.0464 24.3733C19.986 24.0788 19.8256 23.8142 19.5922 23.6247C19.3589 23.4351 19.0671 23.3321 18.7664 23.3333C17.9398 23.3333 17.3264 24.0933 17.4864 24.9067L19.8198 36.3467C20.0647 37.9213 20.8645 39.3566 22.0748 40.3933C23.2851 41.43 24.8261 41.9998 26.4198 42H34.4998C35.2331 42 35.8331 41.4 35.8331 40.6667ZM35.2198 34H29.6331L28.2598 28.5333C29.9664 29.4933 31.7664 30.24 33.7264 30.2667C34.4998 30.28 35.1264 29.6133 35.1264 28.84C35.1264 28.0533 34.4731 27.4533 33.6864 27.4267C31.9398 27.3733 30.1798 26.68 28.8731 25.6533L26.6864 23.96C26.3798 23.72 26.0331 23.56 25.6731 23.4533C25.2448 23.327 24.7935 23.2996 24.3531 23.3733H24.3264C23.5413 23.5127 22.843 23.9566 22.3835 24.6084C21.924 25.2601 21.7406 26.067 21.8731 26.8533L23.6731 34.7467C23.849 35.6613 24.3377 36.4862 25.0554 37.0798C25.7731 37.6735 26.675 37.9988 27.6064 38H36.7398L40.8598 41.2267C41.4198 41.6667 42.2198 41.6133 42.7131 41.12C43.3131 40.52 43.2464 39.5467 42.5798 39.0267L36.8598 34.56C36.3902 34.1968 35.8134 33.9999 35.2198 34Z" fill="#4669CD"/>
<g clip-path="url(#clip1_34_330)">
<path d="M21.6331 21.52C20.4331 20.6667 20.1398 19.0133 20.9798 17.8C21.8198 16.6 23.4864 16.3067 24.6998 17.1467C25.8998 18 26.1931 19.6533 25.3531 20.8667C24.4998 22.0667 22.8464 22.36 21.6331 21.52ZM35.8331 40.6667C35.8331 39.9333 35.2331 39.3333 34.4998 39.3333H26.4064C24.4331 39.3333 22.7531 37.8933 22.4598 35.9467L20.0464 24.3733C19.986 24.0788 19.8256 23.8142 19.5922 23.6247C19.3589 23.4351 19.0671 23.3321 18.7664 23.3333C17.9398 23.3333 17.3264 24.0933 17.4864 24.9067L19.8198 36.3467C20.0647 37.9213 20.8645 39.3566 22.0748 40.3933C23.2851 41.43 24.8261 41.9998 26.4198 42H34.4998C35.2331 42 35.8331 41.4 35.8331 40.6667ZM35.2198 34H29.6331L28.2598 28.5333C29.9664 29.4933 31.7664 30.24 33.7264 30.2667C34.4998 30.28 35.1264 29.6133 35.1264 28.84C35.1264 28.0533 34.4731 27.4533 33.6864 27.4267C31.9398 27.3733 30.1798 26.68 28.8731 25.6533L26.6864 23.96C26.3798 23.72 26.0331 23.56 25.6731 23.4533C25.2448 23.327 24.7935 23.2996 24.3531 23.3733H24.3264C23.5413 23.5127 22.843 23.9566 22.3835 24.6084C21.924 25.2601 21.7406 26.067 21.8731 26.8533L23.6731 34.7467C23.849 35.6613 24.3377 36.4862 25.0554 37.0798C25.7731 37.6735 26.675 37.9988 27.6064 38H36.7398L40.8598 41.2267C41.4198 41.6667 42.2198 41.6133 42.7131 41.12C43.3131 40.52 43.2464 39.5467 42.5798 39.0267L36.8598 34.56C36.3902 34.1968 35.8134 33.9999 35.2198 34Z" fill="#4669CD"/>
</g>
</g>
<defs>
<clipPath id="clip0_34_330">
<rect width="32" height="32" fill="white" transform="translate(14.5 14)"/>
</clipPath>
<clipPath id="clip1_34_330">
<rect width="32" height="32" fill="white" transform="translate(14.5 14)"/>
</clipPath>
</defs>
</svg>
